<svg xmlns="http://www.w3.org/2000/svg" xmlns:xlink="http://www.w3.org/1999/xlink" width="600" zoomAndPan="magnify" viewBox="0 0 450 449.999984" height="600" preserveAspectRatio="xMidYMid meet" version="1.0"><rect x="-45" width="540" fill="#fefefe" y="-44.999998" height="539.99998" fill-opacity="1"/><path fill="#f94338" d="M 301.320312 63.625 C 303.113281 64.035156 303.113281 64.035156 304.84375 64.632812 L 305.851562 65.640625 C 306.226562 67.203125 306.179688 68.605469 305.851562 70.175781 C 304.875 71.765625 303.605469 72.964844 302.25 74.238281 L 301.125 75.347656 C 299.9375 76.507812 298.742188 77.65625 297.542969 78.800781 C 296.75 79.574219 295.957031 80.347656 295.167969 81.125 C 292.046875 84.175781 288.898438 87.171875 285.601562 90.03125 C 284.433594 91.058594 283.332031 92.144531 282.238281 93.253906 L 280.957031 94.546875 L 279.65625 95.867188 C 277.015625 98.546875 274.371094 101.167969 271.515625 103.617188 C 270.042969 104.910156 268.683594 106.304688 267.316406 107.703125 C 265.332031 109.710938 263.335938 111.65625 261.175781 113.480469 C 260.140625 114.394531 259.125 115.328125 258.121094 116.28125 L 257.089844 117.261719 C 256.398438 117.914062 255.710938 118.570312 255.027344 119.230469 L 254.066406 120.136719 L 253.199219 120.964844 L 252.457031 121.554688 L 251.449219 121.554688 L 250.945312 123.066406 C 249.882812 124.007812 249.882812 124.007812 248.550781 125.019531 C 246.683594 126.445312 245.035156 127.941406 243.386719 129.617188 C 242.335938 130.613281 241.277344 131.597656 240.207031 132.574219 L 239.324219 133.390625 C 237.5625 135.011719 235.785156 136.617188 233.972656 138.183594 C 232.957031 139.0625 231.945312 139.949219 230.9375 140.839844 L 228.875 142.652344 L 227.867188 143.542969 L 226.910156 144.378906 L 226.054688 145.132812 C 225.253906 145.738281 225.253906 145.738281 223.742188 146.242188 L 223.742188 147.246094 C 223.003906 147.917969 222.230469 148.550781 221.445312 149.167969 C 219.054688 151.078125 216.726562 153.042969 214.421875 155.054688 C 211.855469 157.292969 209.261719 159.492188 206.613281 161.636719 C 205.433594 162.597656 204.257812 163.5625 203.089844 164.53125 C 199.066406 167.867188 195.019531 171.144531 190.855469 174.296875 C 189.574219 175.269531 188.296875 176.25 187.023438 177.226562 C 185.941406 178.054688 184.859375 178.878906 183.777344 179.707031 C 182.109375 180.980469 180.441406 182.257812 178.777344 183.535156 C 174.410156 186.878906 170.035156 190.199219 165.535156 193.367188 C 164.308594 194.234375 163.089844 195.113281 161.878906 196.007812 C 156.933594 199.644531 151.875 203.097656 146.761719 206.5 L 145.746094 207.179688 C 144.78125 207.820312 143.816406 208.460938 142.847656 209.101562 L 141.972656 209.683594 C 140.726562 210.507812 139.480469 211.300781 138.183594 212.050781 L 137.097656 212.734375 L 136.59375 213.742188 L 137.699219 214.152344 C 142.074219 216 145.902344 219.136719 149.671875 221.980469 C 151.011719 222.988281 152.117188 223.789062 153.71875 224.320312 L 153.71875 225.328125 L 155.078125 225.738281 C 156.65625 226.304688 157.816406 226.945312 159.199219 227.878906 C 162.476562 230.015625 165.855469 231.929688 169.28125 233.8125 C 169.980469 234.199219 170.679688 234.585938 171.378906 234.976562 C 177.0625 238.152344 182.878906 240.707031 188.984375 242.960938 L 190.160156 243.394531 C 195.882812 245.484375 201.632812 246.910156 207.621094 247.996094 L 209.375 248.34375 C 224.351562 250.871094 240.164062 248.714844 254.46875 243.96875 L 255.632812 243.59375 C 262.808594 241.246094 269.515625 237.910156 276.261719 234.550781 C 277.539062 233.945312 278.839844 233.390625 280.160156 232.886719 L 280.160156 231.878906 C 280.800781 231.550781 281.441406 231.226562 282.082031 230.902344 L 283.164062 230.351562 C 284.191406 229.863281 284.191406 229.863281 285.703125 229.359375 L 285.703125 228.351562 L 286.640625 227.855469 L 287.875 227.1875 L 289.097656 226.53125 C 290.164062 225.878906 290.890625 225.21875 291.746094 224.320312 L 292.976562 223.597656 C 294.277344 222.875 294.277344 222.875 295.199219 221.878906 C 296.328125 220.75 297.511719 219.789062 298.769531 218.8125 C 300.1875 217.691406 301.550781 216.59375 302.800781 215.285156 C 303.839844 214.246094 303.839844 214.246094 305.347656 213.742188 C 304.96875 212.183594 304.96875 212.183594 303.78125 211.273438 C 303.34375 210.933594 302.90625 210.597656 302.453125 210.25 L 301.136719 209.226562 L 299.808594 208.203125 C 297.464844 206.382812 295.648438 204.4375 293.761719 202.15625 L 293.121094 201.378906 C 286.40625 193.214844 281.71875 184.390625 279.65625 173.945312 C 278.878906 168.613281 278.898438 163.238281 280.574219 158.066406 C 281.859375 154.914062 283.632812 152.023438 286.3125 149.886719 C 288.71875 148.234375 290.914062 146.882812 293.863281 146.574219 C 297.179688 146.539062 300.101562 146.613281 303.140625 148.019531 C 306.574219 150.128906 309.328125 152.875 311.394531 156.316406 L 312.402344 156.820312 L 312.796875 155.71875 C 313.886719 153.199219 315.484375 151.175781 317.4375 149.261719 C 319.980469 147.734375 322.929688 146.351562 325.914062 146.136719 C 329.359375 146.089844 332.492188 146.070312 335.574219 147.75 C 338.253906 149.589844 340.144531 151.554688 341.621094 154.457031 C 343.832031 159.355469 343.507812 164.625 343.128906 169.917969 C 341.96875 178.285156 337.324219 186.765625 332.550781 193.59375 L 331.589844 194.996094 C 328.875 198.878906 326.027344 202.644531 323.105469 206.375 L 322.367188 207.320312 C 321.4375 208.507812 320.519531 209.652344 319.453125 210.71875 L 319.453125 211.726562 C 320.230469 211.886719 321.007812 212.042969 321.785156 212.199219 L 323.09375 212.464844 L 324.492188 212.734375 C 324.933594 212.824219 325.371094 212.917969 325.824219 213.011719 C 332.035156 213.851562 338.726562 213.855469 344.691406 211.839844 C 346.496094 211.078125 348.1875 210.21875 349.84375 209.183594 C 350.6875 208.707031 350.6875 208.707031 351.695312 208.707031 L 351.695312 207.699219 C 352.398438 207.234375 353.105469 206.773438 353.816406 206.324219 C 355.894531 204.847656 357.617188 202.875 359.28125 200.960938 C 360.257812 200.140625 360.257812 200.140625 361.769531 199.699219 C 363.28125 199.636719 363.28125 199.636719 364.332031 200.007812 C 365.296875 200.644531 365.296875 200.644531 365.820312 201.59375 C 366.144531 202.84375 366.335938 203.882812 366.304688 205.179688 C 365.578125 206.792969 364.5 207.941406 363.28125 209.207031 L 362.410156 210.214844 C 357.746094 215.3125 351.066406 218.59375 344.546875 220.667969 C 337.398438 222.824219 329.011719 222.308594 321.789062 220.796875 C 319.488281 220.160156 317.378906 219.285156 315.246094 218.222656 C 313.890625 217.679688 313.890625 217.679688 312.296875 217.828125 L 310.890625 218.277344 C 310.292969 219.175781 310.292969 219.175781 309.882812 220.292969 C 309.175781 221.101562 308.441406 221.890625 307.679688 222.652344 L 306.503906 223.855469 C 305.347656 224.824219 305.347656 224.824219 304.257812 225.085938 L 303.335938 225.328125 L 302.898438 226.207031 C 302.058594 227.878906 300.667969 228.816406 299.210938 229.925781 L 298.261719 230.65625 C 292.382812 235.136719 286.175781 238.980469 279.65625 242.457031 L 278.679688 242.980469 C 260.167969 252.796875 239.597656 258.339844 218.585938 257.632812 C 195.984375 256.605469 174.277344 247.878906 155.335938 235.835938 C 151.167969 233.160156 147.039062 230.429688 142.917969 227.679688 C 141.703125 226.851562 141.703125 226.851562 140.625 226.335938 L 140.625 225.328125 L 139.503906 224.90625 C 138.203125 224.363281 137.070312 223.75 135.875 223.011719 L 134.660156 222.261719 L 133.414062 221.488281 L 132.136719 220.699219 C 131.101562 220.0625 130.070312 219.421875 129.035156 218.78125 C 127.683594 219.378906 126.660156 219.886719 125.511719 220.796875 C 124.554688 222.207031 124.042969 223.722656 123.496094 225.328125 L 122.929688 226.980469 C 122.292969 228.890625 121.675781 230.808594 121.070312 232.726562 L 120.398438 234.84375 C 119.746094 236.875 119.101562 238.910156 118.457031 240.945312 L 117.558594 243.777344 L 117.152344 245.054688 C 116.890625 245.886719 116.625 246.71875 116.355469 247.550781 C 115.511719 250.195312 114.675781 252.847656 113.851562 255.5 C 113.324219 257.203125 112.785156 258.902344 112.25 260.601562 C 111.980469 261.449219 111.71875 262.296875 111.457031 263.144531 C 111.089844 264.34375 110.710938 265.539062 110.332031 266.734375 L 110.003906 267.824219 C 109.4375 269.570312 108.824219 270.742188 107.632812 272.152344 C 106.367188 273.183594 106.367188 273.183594 104.855469 273.5 C 103.34375 273.183594 103.34375 273.183594 101.867188 272.210938 L 100.828125 270.667969 C 100.867188 266.582031 102.3125 262.863281 103.636719 259.046875 C 104.328125 257.046875 105.007812 255.039062 105.683594 253.035156 C 105.824219 252.621094 105.964844 252.207031 106.109375 251.78125 C 107.875 246.5625 109.5 241.292969 111.121094 236.027344 L 111.453125 234.953125 C 111.746094 234 112.039062 233.050781 112.332031 232.097656 C 112.941406 230.289062 113.65625 228.582031 114.429688 226.839844 L 113.566406 227.195312 C 112.257812 227.730469 110.953125 228.261719 109.640625 228.792969 L 108.289062 229.347656 C 103.234375 231.394531 98.773438 232.296875 93.269531 231.878906 C 91.792969 231.558594 91.058594 231.195312 89.746094 230.367188 C 88.460938 229.015625 87.816406 228.101562 87.226562 226.335938 C 86.941406 224.121094 86.949219 222.097656 87.683594 219.972656 C 89.246094 216.695312 91.277344 214.144531 93.898438 211.664062 C 98.648438 208.429688 104.207031 206.445312 109.894531 205.683594 C 113.617188 205.511719 117.28125 205.746094 120.976562 206.1875 L 121.367188 204.277344 C 122 201.4375 122.890625 198.695312 123.777344 195.921875 C 127.363281 184.476562 130.132812 172.796875 132.910156 161.132812 L 133.175781 160.019531 C 136.027344 148.0625 138.488281 136.019531 140.8125 123.949219 L 141.167969 122.105469 C 143.242188 111.347656 145.132812 100.566406 146.890625 89.75 L 147.109375 88.429688 C 147.421875 86.503906 147.710938 84.582031 147.917969 82.640625 L 148.128906 80.742188 L 148.277344 79.140625 C 148.683594 77.730469 148.683594 77.730469 149.898438 76.3125 C 151.203125 75.210938 151.203125 75.210938 152.460938 74.707031 C 153.71875 74.707031 153.71875 74.707031 155.105469 75.335938 L 156.238281 76.21875 C 157.21875 79.160156 156.683594 82.128906 156.175781 85.128906 L 155.972656 86.363281 C 155.816406 87.308594 155.660156 88.257812 155.5 89.207031 C 155.207031 90.980469 154.921875 92.753906 154.636719 94.53125 C 151.429688 114.363281 147.851562 134.160156 143.382812 153.75 C 143.140625 154.804688 142.902344 155.855469 142.667969 156.90625 C 139.4375 171.179688 135.800781 185.371094 131.808594 199.449219 L 131.472656 200.628906 C 130.777344 203.035156 129.941406 205.363281 129.035156 207.699219 C 132.144531 206.101562 134.9375 204.238281 137.738281 202.160156 C 139.03125 201.210938 140.335938 200.285156 141.664062 199.386719 L 142.75 198.644531 L 143.644531 198.125 L 144.652344 198.125 L 144.652344 197.117188 C 147.992188 195.167969 147.992188 195.167969 149.691406 194.601562 L 149.691406 193.59375 L 151.164062 192.796875 C 153.96875 191.195312 156.507812 189.222656 159.101562 187.304688 C 159.488281 187.019531 159.875 186.734375 160.277344 186.441406 L 161.335938 185.65625 C 162.285156 185.027344 162.285156 185.027344 163.796875 184.523438 L 163.796875 183.519531 C 165.242188 182.449219 165.242188 182.449219 166.816406 181.503906 L 167.824219 181.503906 L 167.824219 180.496094 C 168.691406 179.882812 168.691406 179.882812 169.808594 179.234375 C 170.503906 178.835938 171.1875 178.417969 171.855469 177.976562 L 172.359375 176.96875 C 173.246094 176.46875 174.128906 175.972656 175.035156 175.507812 C 176.046875 174.929688 176.046875 174.929688 176.894531 173.441406 C 178.6875 172.34375 180.535156 171.335938 182.433594 170.421875 L 182.433594 169.414062 C 183.265625 168.894531 184.105469 168.394531 184.953125 167.902344 C 185.460938 167.402344 185.964844 166.898438 186.464844 166.390625 C 187.035156 165.941406 187.613281 165.503906 188.199219 165.078125 L 189.207031 164.339844 L 190.273438 163.558594 C 193.175781 161.414062 195.886719 159.195312 198.527344 156.734375 C 199.804688 155.59375 201.140625 154.714844 202.585938 153.796875 C 203.382812 153.082031 203.382812 153.082031 204.09375 152.285156 C 205.6875 150.609375 207.164062 149.4375 209.132812 148.253906 L 210.359375 147.027344 C 211.703125 145.6875 213.101562 144.769531 214.675781 143.722656 L 216.027344 142.367188 C 217.191406 141.203125 217.191406 141.203125 218.703125 140.699219 L 219.207031 139.1875 C 219.941406 138.578125 219.941406 138.578125 220.84375 137.992188 C 222.511719 136.855469 223.839844 135.597656 225.253906 134.148438 C 226.359375 133.140625 227.480469 132.152344 228.605469 131.160156 C 229.382812 130.476562 230.152344 129.789062 230.921875 129.09375 L 231.992188 128.136719 L 232.945312 127.273438 C 233.816406 126.59375 233.816406 126.59375 235.328125 126.089844 L 235.328125 125.082031 C 236.152344 124.394531 236.992188 123.722656 237.847656 123.066406 L 238.601562 122.3125 C 239.359375 121.554688 239.359375 121.554688 240.554688 120.613281 C 241.878906 119.578125 241.878906 119.578125 242.980469 118.441406 C 245.726562 115.691406 248.671875 113.144531 251.605469 110.601562 C 253.121094 109.273438 254.578125 107.890625 255.980469 106.445312 C 257.585938 104.800781 259.226562 103.34375 261.019531 101.910156 C 261.867188 101.078125 262.703125 100.238281 263.539062 99.390625 C 264.847656 98.066406 266.160156 96.746094 267.472656 95.425781 L 268.5 94.382812 C 270.132812 92.742188 271.777344 91.152344 273.535156 89.648438 C 276.15625 87.390625 278.554688 84.914062 280.980469 82.453125 C 286.339844 77.015625 286.339844 77.015625 289.230469 74.707031 C 290.078125 73.878906 290.917969 73.039062 291.746094 72.1875 L 293.007812 70.960938 C 294.304688 69.671875 294.304688 69.671875 295.496094 68.160156 C 296.851562 66.570312 298.148438 65.390625 299.808594 64.128906 Z M 301.320312 63.625 " fill-opacity="1" fill-rule="nonzero"/><path fill="#000000" d="M 397.242188 310.90625 L 398.542969 311.46875 L 399.542969 311.894531 C 403.191406 313.714844 406.46875 316.929688 408.808594 320.222656 C 411.023438 323.808594 412.503906 327.921875 412.695312 332.148438 C 412.714844 333.285156 412.71875 334.421875 412.710938 335.554688 L 412.71875 336.738281 C 412.710938 337.71875 412.6875 338.699219 412.648438 339.679688 L 412.144531 340.183594 C 410.769531 340.230469 409.394531 340.25 408.015625 340.242188 L 406.707031 340.242188 C 405.269531 340.242188 403.835938 340.238281 402.398438 340.234375 L 399.417969 340.230469 C 396.800781 340.230469 394.179688 340.226562 391.558594 340.21875 C 388.890625 340.214844 386.21875 340.210938 383.546875 340.207031 C 378.304688 340.203125 373.058594 340.195312 367.8125 340.183594 C 368.039062 341.300781 368.261719 342.417969 368.492188 343.535156 L 368.875 345.421875 C 369.636719 348.492188 371.039062 351.011719 372.726562 353.660156 C 375.347656 356.28125 378.34375 358.023438 381.894531 359.0625 C 386.847656 360.328125 391.398438 359.953125 396.351562 358.816406 C 399.507812 357.886719 401.996094 356.269531 404.589844 354.289062 C 406.160156 354.976562 407.128906 355.726562 408.238281 357.027344 L 409.035156 357.9375 L 409.625 358.824219 L 409.625 360.335938 C 408.621094 361.144531 407.570312 361.886719 406.476562 362.570312 L 405.515625 363.179688 C 401.113281 365.871094 396.394531 367.320312 391.238281 367.488281 C 384.417969 367.59375 378.429688 367.078125 372.308594 363.785156 C 368.03125 361.074219 364.882812 357.78125 362.492188 353.324219 C 360.773438 349.625 359.414062 345.800781 359.25 341.695312 L 359.171875 339.886719 C 358.988281 333.605469 359.90625 328.085938 362.917969 322.476562 C 365.503906 318.191406 368.46875 314.949219 372.851562 312.476562 C 380.417969 308.839844 389.246094 307.9375 397.242188 310.90625 M 41.886719 289.808594 C 41.898438 294.71875 41.910156 299.625 41.914062 304.535156 C 41.917969 306.8125 41.921875 309.09375 41.925781 311.371094 C 41.929688 313.570312 41.933594 315.769531 41.9375 317.964844 C 41.9375 318.804688 41.9375 319.648438 41.941406 320.488281 C 41.945312 321.660156 41.945312 322.835938 41.945312 324.007812 L 41.949219 325.066406 C 41.945312 327.476562 41.945312 327.476562 41.382812 328.597656 C 44.605469 325.976562 47.363281 323 50.136719 319.925781 C 51.683594 318.226562 53.253906 316.546875 54.828125 314.871094 L 55.8125 313.816406 C 57.734375 311.773438 59.691406 309.769531 61.691406 307.800781 C 62.914062 306.558594 64.035156 305.234375 65.171875 303.914062 C 66.105469 302.863281 67.082031 301.878906 68.082031 300.890625 C 69.382812 299.613281 70.613281 298.308594 71.796875 296.925781 L 72.6875 295.933594 C 73.667969 294.828125 73.667969 294.828125 74.609375 293.492188 C 75.890625 291.914062 76.914062 290.871094 78.660156 289.808594 C 81.957031 289.074219 85.378906 289.171875 88.738281 289.304688 C 88.5625 290.226562 88.5625 290.226562 88.234375 291.320312 C 87.328125 292.324219 86.382812 293.289062 85.398438 294.21875 C 84.839844 294.761719 84.28125 295.304688 83.722656 295.851562 L 82.90625 296.648438 C 82.0625 297.488281 81.285156 298.371094 80.519531 299.285156 C 78.449219 301.726562 76.136719 303.929688 73.867188 306.179688 C 71.96875 308.070312 70.148438 309.984375 68.417969 312.03125 C 67.351562 313.242188 66.210938 314.367188 65.0625 315.5 C 62.332031 318.199219 59.785156 320.976562 57.503906 324.0625 L 58.046875 324.722656 C 69.296875 338.351562 69.296875 338.351562 74.515625 345.039062 C 76.363281 347.398438 78.261719 349.714844 80.171875 352.023438 C 83.257812 355.75 86.28125 359.527344 89.242188 363.355469 L 90.148438 364.496094 C 90.347656 364.785156 90.546875 365.074219 90.75 365.371094 L 90.75 366.378906 C 87.242188 366.6875 83.664062 366.96875 80.171875 366.378906 C 78.121094 365.125 77.324219 363.394531 76.144531 361.339844 C 75.125 360.003906 74.042969 358.726562 72.964844 357.4375 C 70.863281 354.871094 68.796875 352.277344 66.761719 349.660156 C 64.769531 347.105469 62.707031 344.617188 60.597656 342.15625 C 57.417969 338.421875 54.386719 334.550781 51.460938 330.613281 C 49.835938 331.3125 48.902344 332.09375 47.777344 333.445312 C 45.917969 335.648438 45.917969 335.648438 45.058594 336.4375 C 44.007812 337.464844 43.175781 338.433594 42.390625 339.679688 C 41.902344 341.722656 41.921875 343.695312 41.953125 345.785156 L 41.941406 347.527344 C 41.925781 349.351562 41.9375 351.175781 41.949219 352.996094 C 41.945312 354.835938 41.941406 356.671875 41.929688 358.507812 C 41.925781 359.648438 41.925781 360.789062 41.929688 361.925781 L 41.933594 363.476562 L 41.945312 364.847656 L 41.886719 365.875 L 41.382812 366.378906 L 33.324219 366.378906 L 33.324219 289.808594 C 39.371094 289.304688 39.371094 289.304688 41.886719 289.808594 " fill-opacity="1" fill-rule="nonzero"/><path fill="#fefefe" d="M 299.808594 155.308594 C 302.15625 156.640625 303.589844 158.535156 304.972656 160.816406 C 306.480469 163.722656 306.988281 166.5625 307.445312 169.773438 C 307.761719 171.449219 307.761719 171.449219 308.789062 172.65625 C 309.800781 173.507812 309.800781 173.507812 310.90625 173.617188 L 311.929688 173.472656 L 312.953125 173.367188 C 314.019531 172.984375 314.019531 172.984375 314.75 171.820312 C 315.433594 170.398438 315.777344 169.160156 316.085938 167.617188 C 316.972656 163.894531 318.277344 160.207031 320.867188 157.316406 C 322.296875 156.050781 323.734375 155.042969 325.5 154.300781 C 327.027344 154.089844 328.5 154.125 330.03125 154.300781 C 331.625 154.972656 332.453125 155.710938 333.652344 156.945312 C 335.074219 159.101562 335.507812 161.09375 335.730469 163.652344 C 335.433594 172.808594 331.136719 180.699219 326.457031 188.289062 C 325.195312 190.28125 323.921875 192.230469 322.476562 194.097656 L 321.46875 194.097656 L 321.25 195.042969 C 320.964844 196.113281 320.964844 196.113281 320.460938 197.117188 L 319.453125 197.117188 L 319.078125 198.316406 L 318.445312 199.636719 L 316.433594 200.644531 L 316.023438 201.746094 C 315.136719 203.84375 313.546875 205.160156 311.898438 206.691406 C 309.105469 205.652344 306.824219 204.425781 304.84375 202.15625 L 304.84375 201.148438 L 303.871094 200.738281 L 302.832031 200.140625 L 302.328125 198.628906 L 301.320312 198.628906 C 300.546875 197.773438 299.800781 196.890625 299.085938 195.984375 C 298.691406 195.496094 298.296875 195.003906 297.890625 194.5 L 296.785156 193.089844 L 295.886719 191.964844 L 295.273438 191.074219 L 295.273438 190.066406 L 294.265625 190.066406 C 293.929688 189.417969 293.59375 188.765625 293.257812 188.113281 L 292.691406 187.015625 C 292.25 186.035156 292.25 186.035156 292.25 185.027344 L 291.246094 185.027344 C 290.75 183.445312 290.257812 181.859375 289.777344 180.273438 C 289.457031 179.214844 289.121094 178.164062 288.777344 177.113281 C 287.359375 172.5625 286.824219 167.59375 287.398438 162.847656 C 287.96875 160.570312 288.925781 158.894531 290.394531 157.070312 C 291.476562 155.953125 292.332031 155.261719 293.699219 154.488281 C 295.933594 154.222656 297.714844 154.492188 299.808594 155.308594 M 205.132812 317.890625 C 208.5625 319.355469 211.023438 321.695312 213.398438 324.527344 C 214.570312 326.117188 215.449219 327.773438 216.1875 329.605469 L 216.734375 330.917969 C 217.355469 333.230469 217.359375 335.40625 217.351562 337.792969 L 217.375 339.152344 C 217.378906 342.960938 216.585938 346.222656 215.03125 349.695312 C 212.882812 353.304688 210.40625 356.027344 206.71875 358.101562 C 202.589844 360.011719 198.585938 360.566406 194.0625 360.222656 C 190.289062 359.675781 187.101562 358.273438 183.960938 356.132812 C 181.246094 353.988281 179.246094 351.238281 177.898438 348.058594 C 176.175781 343.117188 175.828125 337.972656 176.699219 332.8125 C 177.757812 328.5625 179.480469 325.285156 182.433594 322.050781 C 185.175781 319.457031 188.53125 317.613281 192.203125 316.714844 C 196.691406 316.003906 200.847656 316.414062 205.132812 317.890625 " fill-opacity="1" fill-rule="nonzero"/><path fill="#000000" d="M 209.222656 311.390625 C 213.800781 313.457031 217.785156 317.007812 220.71875 321.042969 C 223.898438 326.3125 225.757812 331.664062 225.945312 337.855469 C 225.769531 343.726562 224.523438 348.988281 221.734375 354.175781 C 219.042969 358.488281 215.570312 361.859375 211.148438 364.363281 C 206.25 366.851562 201.003906 367.902344 195.53125 367.890625 C 190.628906 367.570312 185.734375 366.226562 181.425781 363.859375 C 177.074219 360.941406 173.652344 357.492188 171.226562 352.839844 C 168.550781 347.109375 167.421875 341.40625 167.90625 335.078125 C 168.566406 329.300781 170.589844 324.375 173.996094 319.65625 C 177.230469 315.734375 181.273438 312.882812 185.960938 310.964844 L 187.136719 310.476562 C 193.980469 308.148438 202.578125 308.820312 209.222656 311.390625 M 185.359375 319.878906 L 184.449219 320.539062 L 182.875 321.671875 C 180.03125 324.390625 178.402344 327.203125 177.207031 330.960938 C 175.996094 335.664062 175.941406 340.132812 176.988281 344.875 C 178.082031 348.726562 179.914062 352.042969 182.609375 355.011719 C 184.941406 357.214844 187.699219 358.625 190.757812 359.546875 C 195.097656 360.539062 199.308594 360.589844 203.59375 359.328125 C 207.140625 357.972656 210.027344 356.011719 212.660156 353.28125 C 214.953125 350.414062 216.417969 346.792969 217.191406 343.207031 C 217.535156 338.894531 217.9375 333.820312 216.375 329.730469 C 215.828125 328.621094 215.828125 328.621094 215.179688 327.589844 L 214.511719 326.410156 C 212.605469 323.28125 210.230469 320.839844 207.113281 318.902344 C 203.226562 316.828125 199.519531 316.300781 195.152344 316.382812 C 191.472656 316.664062 188.402344 317.816406 185.359375 319.878906 M 133.222656 309.296875 L 134.578125 309.273438 C 138.328125 309.269531 141.628906 309.976562 145.003906 311.632812 C 148.269531 313.871094 150.914062 316.441406 152.871094 319.90625 C 155.222656 325.273438 154.863281 331.328125 154.828125 337.058594 L 154.820312 339.609375 C 154.816406 341.824219 154.808594 344.039062 154.796875 346.257812 C 154.785156 348.527344 154.78125 350.796875 154.777344 353.066406 C 154.765625 357.503906 154.75 361.941406 154.726562 366.378906 L 146.667969 366.378906 L 146.644531 363.089844 C 146.621094 359.488281 146.585938 355.886719 146.550781 352.28125 C 146.527344 350.101562 146.507812 347.917969 146.492188 345.734375 C 146.480469 343.625 146.460938 341.515625 146.433594 339.40625 C 146.425781 338.605469 146.421875 337.804688 146.417969 337 C 146.390625 329.777344 146.390625 329.777344 144.09375 322.992188 C 142.847656 320.96875 141.214844 319.6875 139.160156 318.523438 C 135.902344 316.96875 132.609375 316.738281 129.035156 317.011719 C 125.429688 317.539062 122.417969 319.082031 119.402344 321.074219 C 117.300781 322.945312 115.976562 325.515625 114.933594 328.09375 C 113.75 332.300781 113.75 336.5625 113.714844 340.894531 C 113.707031 341.636719 113.695312 342.371094 113.6875 343.109375 C 113.660156 345.039062 113.640625 346.964844 113.621094 348.890625 C 113.601562 350.863281 113.574219 352.835938 113.550781 354.804688 C 113.503906 358.664062 113.460938 362.523438 113.421875 366.378906 L 105.359375 366.378906 L 105.359375 309.960938 L 113.421875 309.960938 L 113.421875 318.523438 L 114.429688 318.523438 L 114.820312 317.625 C 115.921875 315.625 117.652344 314.328125 119.464844 312.980469 C 123.933594 310.320312 128.058594 309.277344 133.222656 309.296875 M 342.3125 310.273438 C 345.046875 311.292969 347.382812 312.707031 349.679688 314.492188 L 351.222656 315.6875 L 352.199219 316.507812 C 351.496094 318.070312 350.679688 319.210938 349.492188 320.445312 L 348.597656 321.398438 L 347.664062 322.050781 C 346.613281 321.953125 346.613281 321.953125 345.648438 321.546875 L 344.546875 320.632812 C 342.054688 318.691406 339.203125 317.488281 336.078125 317.011719 C 331.398438 316.753906 327.460938 316.953125 323.230469 319.089844 C 320.347656 320.792969 318.085938 322.90625 316.179688 325.664062 C 314.121094 329.316406 313.195312 333.503906 312.90625 337.664062 C 313.023438 342.4375 314.253906 347.023438 316.433594 351.265625 C 318.292969 354.144531 320.433594 355.933594 323.453125 357.53125 C 327.238281 359.25 330.902344 360.207031 335.070312 359.832031 C 338.578125 359.378906 341.617188 358.121094 344.640625 356.304688 C 345.914062 355.246094 345.914062 355.246094 346.65625 354.289062 C 348.347656 355.011719 349.378906 355.90625 350.59375 357.28125 L 351.546875 358.332031 L 352.199219 359.328125 L 351.695312 360.835938 C 347.90625 364.078125 343.675781 366.148438 338.828125 367.179688 C 336.765625 367.523438 334.734375 367.558594 332.644531 367.542969 C 332.207031 367.542969 331.765625 367.539062 331.308594 367.535156 C 326.152344 367.4375 321.78125 366.414062 317.304688 363.785156 C 313.152344 360.976562 309.960938 357.785156 307.582031 353.359375 C 304.617188 346.835938 303.871094 340.304688 304.460938 333.203125 C 305.210938 328.074219 307.285156 323.238281 310.417969 319.121094 C 313.9375 315.105469 318.363281 312.144531 323.375 310.289062 C 329.132812 308.585938 336.546875 308.625 342.3125 310.273438 M 250.441406 295.855469 L 250.441406 309.960938 L 254.058594 309.941406 C 255.210938 309.9375 256.363281 309.933594 257.515625 309.929688 C 258.316406 309.929688 259.121094 309.925781 259.921875 309.921875 C 261.074219 309.914062 262.226562 309.914062 263.378906 309.910156 L 264.472656 309.902344 C 265.335938 309.902344 266.199219 309.929688 267.0625 309.960938 L 267.566406 310.460938 L 267.566406 317.011719 L 250.441406 317.515625 C 250.484375 324.066406 250.484375 324.066406 250.546875 330.617188 C 250.574219 333.292969 250.597656 335.964844 250.613281 338.636719 C 250.628906 340.792969 250.648438 342.949219 250.671875 345.105469 C 250.683594 345.925781 250.6875 346.746094 250.691406 347.570312 C 250.695312 348.722656 250.710938 349.875 250.726562 351.027344 L 250.742188 353.015625 C 250.960938 354.941406 251.453125 356.164062 252.457031 357.816406 C 253.914062 359.023438 255.003906 359.332031 256.863281 359.734375 C 260.226562 360.054688 263.429688 358.941406 266.5625 357.816406 C 266.984375 358.621094 267.402344 359.429688 267.820312 360.238281 L 268.527344 361.601562 C 269.078125 362.851562 269.078125 362.851562 269.078125 364.363281 C 268.210938 364.777344 267.339844 365.183594 266.464844 365.59375 L 264.996094 366.28125 C 261.441406 367.746094 257.753906 367.605469 253.964844 367.386719 C 251.140625 366.964844 248.96875 366.078125 246.726562 364.300781 C 244.726562 362.378906 243.742188 360.421875 242.882812 357.816406 C 241.628906 353.421875 241.746094 348.984375 241.777344 344.460938 L 241.78125 342.078125 C 241.789062 340.003906 241.796875 337.925781 241.808594 335.851562 C 241.816406 333.726562 241.824219 331.605469 241.828125 329.480469 C 241.839844 325.324219 241.855469 321.167969 241.875 317.011719 L 231.800781 317.011719 L 231.800781 309.960938 L 241.875 309.960938 L 241.875 297.867188 C 246.578125 295.855469 246.578125 295.855469 250.441406 295.855469 " fill-opacity="1" fill-rule="nonzero"/><path fill="#fefefe" d="M 392.9375 317.074219 C 396.179688 318.386719 399.035156 320.207031 401.21875 322.960938 C 402.816406 325.289062 404.351562 327.820312 404.726562 330.65625 C 404.746094 331.621094 404.746094 331.621094 404.589844 333.132812 L 404.085938 333.636719 C 402.957031 333.683594 401.828125 333.695312 400.699219 333.691406 L 399.625 333.691406 C 398.449219 333.691406 397.277344 333.6875 396.101562 333.683594 L 393.664062 333.683594 C 391.519531 333.679688 389.378906 333.675781 387.234375 333.671875 C 385.050781 333.664062 382.867188 333.660156 380.683594 333.660156 C 376.394531 333.65625 372.105469 333.644531 367.8125 333.636719 C 368.253906 329.742188 369.257812 326.929688 371.339844 323.558594 C 373.515625 320.730469 376 318.996094 379.203125 317.46875 C 383.28125 315.917969 388.753906 315.816406 392.9375 317.074219 " fill-opacity="1" fill-rule="nonzero"/><path fill="#000000" d="M 282.679688 309.960938 L 290.742188 309.960938 L 290.742188 366.378906 L 282.679688 366.378906 Z M 287.980469 287.148438 C 289.230469 287.289062 289.230469 287.289062 290.742188 288.171875 C 291.699219 289.25 292.3125 289.957031 292.753906 291.320312 C 292.945312 292.769531 292.945312 292.769531 292.753906 294.34375 C 291.875 295.980469 291.875 295.980469 290.742188 297.367188 C 289.679688 298.019531 288.859375 298.351562 287.625 298.542969 C 286.453125 298.5625 285.351562 298.542969 284.191406 298.371094 C 282.621094 297.46875 281.898438 296.738281 280.980469 295.191406 C 280.558594 293.378906 280.71875 292.117188 281.167969 290.3125 C 283.160156 287.355469 284.5625 287.113281 287.980469 287.148438 " fill-opacity="1" fill-rule="nonzero"/><path fill="#fefefe" d="M 118.457031 214.246094 C 116.859375 216.035156 115.085938 217.125 112.980469 218.214844 L 111.980469 218.738281 C 101.964844 223.917969 101.964844 223.917969 97.425781 223.847656 L 96.207031 223.835938 L 95.285156 223.816406 C 95.871094 222.003906 96.675781 220.492188 97.945312 219.054688 C 100.65625 216.621094 104.019531 215.222656 107.5 214.277344 C 111.214844 213.507812 114.714844 213.816406 118.457031 214.246094 " fill-opacity="1" fill-rule="nonzero"/><path fill="#f94b40" d="M 120.976562 204.675781 L 121.984375 206.1875 C 122.652344 206.363281 123.324219 206.53125 124 206.691406 C 124.679688 207.183594 125.351562 207.6875 126.015625 208.203125 L 127.527344 208.707031 C 128.15625 210.40625 128.15625 210.40625 128.53125 212.230469 C 128.03125 213.742188 128.03125 213.742188 127.085938 214.625 L 126.015625 215.253906 L 124.503906 214.75 L 122.992188 214.75 L 121.480469 213.742188 L 120.472656 214.246094 L 120.472656 213.238281 L 118.960938 213.742188 L 117.953125 212.734375 L 118.960938 212.734375 L 118.960938 211.726562 L 117.953125 211.222656 L 118.960938 211.222656 L 118.617188 210.3125 L 118.457031 209.210938 C 119.183594 208.328125 119.183594 208.328125 119.96875 207.699219 L 118.960938 207.195312 L 120.976562 206.1875 Z M 119.464844 217.773438 C 119.632812 218.589844 119.800781 219.410156 119.96875 220.230469 L 120.253906 221.609375 C 120.472656 222.808594 120.472656 222.808594 120.472656 223.816406 L 121.480469 222.808594 L 121.480469 223.816406 L 122.488281 223.816406 L 122.992188 226.335938 L 121.480469 225.832031 L 121.984375 224.824219 L 119.96875 224.824219 L 119.96875 225.832031 C 118.285156 225.871094 117.046875 225.867188 115.4375 225.328125 L 115.4375 224.320312 L 112.414062 223.3125 C 112.414062 221.804688 112.414062 221.804688 112.757812 220.773438 C 113.421875 219.789062 113.421875 219.789062 114.585938 219.148438 L 115.9375 218.65625 L 117.292969 218.144531 C 118.457031 217.773438 118.457031 217.773438 119.464844 217.773438 " fill-opacity="1" fill-rule="nonzero"/><path fill="#f94c41" d="M 255.476562 110.472656 L 256.484375 110.976562 C 256.261719 112.234375 255.949219 113.042969 255.257812 114.125 L 254.46875 115.007812 L 253.464844 115.007812 L 252.960938 117.023438 L 251.449219 116.519531 L 251.449219 117.527344 L 248.929688 117.023438 C 249.390625 115.714844 249.804688 114.664062 250.691406 113.589844 L 251.449219 112.992188 L 252.457031 112.992188 L 252.457031 111.984375 C 253.445312 111.449219 254.453125 110.945312 255.476562 110.472656 " fill-opacity="1" fill-rule="nonzero"/><path fill="#f94b40" d="M 300.3125 220.292969 L 301.824219 220.796875 C 302.328125 221.675781 302.328125 221.675781 302.328125 222.808594 C 301.320312 224.132812 301.320312 224.132812 299.808594 225.328125 C 298.628906 225.804688 297.53125 226.066406 296.28125 226.335938 L 295.273438 224.320312 L 296.660156 223.441406 C 298.054688 222.472656 299.164062 221.527344 300.3125 220.292969 M 173.871094 238.425781 L 174.375 239.9375 L 175.382812 239.433594 L 175.382812 240.441406 L 176.894531 240.945312 C 177.238281 241.984375 177.238281 241.984375 177.398438 242.960938 C 175.746094 242.960938 174.453125 242.808594 172.863281 242.457031 L 172.863281 241.449219 L 171.414062 241.039062 L 169.839844 240.441406 L 168.832031 238.929688 C 170.582031 238.347656 172.035156 238.390625 173.871094 238.425781 " fill-opacity="1" fill-rule="nonzero"/><path fill="#f94c41" d="M 261.523438 103.925781 L 263.035156 104.429688 L 262.027344 104.933594 L 262.53125 106.949219 L 261.523438 106.949219 L 261.335938 107.890625 C 261.019531 108.960938 261.019531 108.960938 260.011719 109.96875 C 259.011719 110.492188 258.003906 110.996094 256.988281 111.480469 C 256.582031 110.378906 256.582031 110.378906 256.484375 108.960938 C 257.554688 107.703125 257.554688 107.703125 259.003906 106.445312 Z M 261.523438 103.925781 " fill-opacity="1" fill-rule="nonzero"/><path fill="#f94b40" d="M 189.488281 166.894531 C 190.609375 167.074219 190.609375 167.074219 191.5 167.398438 C 190.878906 169.261719 189.867188 170.574219 188.480469 171.929688 C 186.855469 172.785156 185.246094 173.132812 183.441406 173.441406 L 184.417969 172.277344 C 185.527344 170.984375 185.527344 170.984375 185.960938 169.414062 C 186.710938 168.695312 186.710938 168.695312 187.628906 168.027344 L 188.535156 167.34375 Z M 188.480469 245.984375 C 189.664062 246.289062 190.839844 246.625 192.003906 246.992188 L 191.5 249.003906 L 187.472656 248.5 L 187.472656 246.488281 Z M 188.480469 245.984375 " fill-opacity="1" fill-rule="nonzero"/><path fill="#f94c41" d="M 298.800781 152.285156 L 299.304688 153.292969 L 297.792969 153.292969 L 298.296875 154.804688 L 292.753906 154.804688 L 294.265625 152.789062 C 295.40625 152.480469 295.40625 152.480469 296.628906 152.410156 L 297.863281 152.324219 Z M 298.800781 152.285156 " fill-opacity="1" fill-rule="nonzero"/><path fill="#f94b40" d="M 287.71875 176.96875 L 289.230469 176.96875 L 290.742188 182.007812 L 288.726562 182.007812 C 287.917969 180.238281 287.605469 178.910156 287.71875 176.96875 M 340.613281 154.300781 L 341.621094 154.300781 L 343.128906 159.335938 L 341.621094 158.835938 C 340.738281 157.667969 340.738281 157.667969 340.109375 156.316406 C 340.265625 155.152344 340.265625 155.152344 340.613281 154.300781 " fill-opacity="1" fill-rule="nonzero"/><path fill="#f94c41" d="M 178.90625 175.457031 L 180.921875 175.960938 L 180.921875 177.472656 C 179.507812 178.261719 179.507812 178.261719 177.902344 178.984375 L 176.390625 178.480469 L 177.902344 177.472656 C 178.5 176.441406 178.5 176.441406 178.90625 175.457031 " fill-opacity="1" fill-rule="nonzero"/><path fill="#f94b40" d="M 111.910156 243.464844 C 112.445312 244.3125 112.445312 244.3125 112.917969 245.480469 C 112.726562 246.863281 112.726562 246.863281 112.414062 247.996094 L 110.902344 247.996094 C 110.554688 247.148438 110.554688 247.148438 110.398438 245.984375 C 111.121094 244.597656 111.121094 244.597656 111.910156 243.464844 " fill-opacity="1" fill-rule="nonzero"/><path fill="#f94c41" d="M 202.585938 250.011719 L 204.09375 250.011719 L 204.09375 251.523438 L 205.605469 252.027344 L 204.597656 252.53125 C 203.585938 252.390625 202.578125 252.222656 201.578125 252.027344 Z M 202.585938 250.011719 " fill-opacity="1" fill-rule="nonzero"/><path fill="#f94b40" d="M 133.066406 214.75 L 134.074219 215.253906 L 134.074219 216.261719 L 135.082031 216.261719 L 135.585938 215.253906 L 135.773438 216.230469 L 136.089844 217.269531 L 137.097656 217.773438 L 135.585938 218.277344 L 135.082031 216.765625 L 132.5625 216.261719 Z M 133.066406 214.75 " fill-opacity="1" fill-rule="nonzero"/><path fill="#f94c41" d="M 307.867188 214.75 L 309.378906 214.75 L 308.875 216.261719 C 307.757812 217.0625 306.570312 217.632812 305.347656 218.277344 C 305.996094 216.835938 306.625 215.746094 307.867188 214.75 " fill-opacity="1" fill-rule="nonzero"/></svg>